<?xml version="1.0" standalone="no"?>
<!DOCTYPE svg PUBLIC "-//W3C//DTD SVG 20010904//EN"
 "http://www.w3.org/TR/2001/REC-SVG-20010904/DTD/svg10.dtd">
<svg version="1.0" xmlns="http://www.w3.org/2000/svg"
 width="512.000000pt" height="513.000000pt" viewBox="0 0 512.000000 513.000000"
 preserveAspectRatio="xMidYMid meet">

<g transform="translate(0.000000,513.000000) scale(0.100000,-0.100000)"
fill="#000000" stroke="none">
<path d="M187 4933 c-4 -3 -6 -1069 -7 -2369 l0 -2364 2364 0 c2127 0 2364 1
2370 15 3 9 6 1075 6 2370 l0 2355 -2364 0 c-1300 0 -2366 -3 -2369 -7z m53
-6 c0 -2 -10 -12 -22 -23 l-23 -19 19 23 c18 21 26 27 26 19z m1327 -1269 c0
-18 -2 -27 -5 -19 -3 10 -6 10 -12 1 -9 -14 -30 -5 -29 13 0 9 2 8 6 -1 2 -6
9 -9 14 -6 6 3 5 11 -2 20 -10 12 -9 13 5 8 9 -3 16 -1 16 5 0 6 2 11 3 11 2
0 4 -15 4 -32z m616 19 c-3 -5 4 -6 18 -2 19 5 21 4 9 -4 -13 -10 -13 -11 0
-11 11 0 9 -4 -5 -12 -25 -15 -47 -19 -39 -7 3 5 9 7 14 4 5 -3 11 -1 15 5 5
9 -6 14 -26 12 -3 -1 -6 5 -6 12 0 7 6 13 13 13 7 0 11 -5 7 -10z m121 2 c3
-3 -4 -5 -14 -6 -11 -1 -20 2 -20 7 0 8 25 8 34 -1z m300 2 c3 -4 -4 -7 -14
-6 -27 2 -33 10 -10 12 11 1 22 -2 24 -6z m58 -9 c-7 -2 -10 -7 -7 -12 3 -4
-5 -5 -17 -2 -19 5 -20 7 -5 10 9 2 15 8 12 13 -4 5 2 6 11 2 11 -4 13 -8 6
-11z m48 3 c0 -2 -6 -5 -13 -8 -8 -3 -14 1 -14 8 0 7 6 11 14 8 7 -3 13 -6 13
-8z m105 -3 c-3 -3 -11 0 -18 7 -9 10 -8 11 6 5 10 -3 15 -9 12 -12z m35 8 c0
-5 -2 -10 -4 -10 -3 0 -8 5 -11 10 -3 6 -1 10 4 10 6 0 11 -4 11 -10z m304 2
c3 -5 -1 -9 -9 -9 -8 0 -12 4 -9 9 3 4 7 8 9 8 2 0 6 -4 9 -8z m301 -2 c-3 -5
-12 -10 -18 -10 -7 0 -6 4 3 10 19 12 23 12 15 0z m59 -2 c-3 -4 -9 -8 -15 -8
-5 0 -9 4 -9 8 0 5 7 9 15 9 8 0 12 -4 9 -9z m-594 -8 c8 -5 11 -10 5 -10 -5
0 -17 5 -25 10 -8 5 -10 10 -5 10 6 0 17 -5 25 -10z m270 6 c0 -2 -8 -10 -17
-17 -16 -13 -17 -12 -4 4 13 16 21 21 21 13z m-801 -55 l-2 -26 -4 25 c-3 14
-10 32 -16 40 -11 13 -10 13 6 1 9 -7 16 -25 16 -40z m586 39 c3 -6 -1 -7 -9
-4 -18 7 -21 14 -7 14 6 0 13 -4 16 -10z m396 -13 c-10 -9 -11 -8 -5 6 3 10 9
15 12 12 3 -3 0 -11 -7 -18z m29 3 c-6 -11 -13 -20 -16 -20 -2 0 0 9 6 20 6
11 13 20 16 20 2 0 0 -9 -6 -20z m-809 1 c-8 -5 -11 -16 -8 -24 3 -9 0 -21 -8
-27 -11 -10 -13 -7 -9 16 6 35 12 44 27 44 8 0 7 -3 -2 -9z m487 -15 c3 -11 0
-16 -7 -11 -6 3 -9 10 -6 15 3 5 -3 11 -12 14 -14 4 -14 4 2 3 11 -1 21 -11
23 -21z m112 1 c-9 -7 -17 -31 -19 -57 -4 -66 -12 -64 -10 3 2 40 6 57 16 57
7 0 13 5 13 12 0 6 3 8 7 4 5 -4 1 -13 -7 -19z m-575 3 c-3 -5 -12 -10 -18
-10 -7 0 -6 4 3 10 19 12 23 12 15 0z m401 -26 c-5 -12 -9 -12 -25 -2 -11 7
-17 16 -14 22 3 5 12 1 20 -9 12 -18 13 -17 14 6 0 13 3 18 6 11 3 -7 2 -19
-1 -28z m-675 9 c13 -16 12 -17 -3 -4 -10 7 -18 15 -18 17 0 8 8 3 21 -13z
m1169 -3 c-8 -5 -19 -10 -25 -10 -5 0 -3 5 5 10 8 5 20 10 25 10 6 0 3 -5 -5
-10z m-1316 -12 c-3 -4 -9 -8 -15 -8 -5 0 -9 4 -9 8 0 5 7 9 15 9 8 0 12 -4 9
-9z m-367 -20 c-3 -8 -6 -5 -6 6 -1 11 2 17 5 13 3 -3 4 -12 1 -19z m1513 -8
c0 -4 -6 -10 -14 -13 -12 -5 -14 2 -7 31 2 7 21 -10 21 -18z m140 17 c0 -2
-10 -12 -22 -23 l-23 -19 19 23 c18 21 26 27 26 19z m-1763 -39 c-3 -7 -5 -2
-5 12 0 14 2 19 5 13 2 -7 2 -19 0 -25z m462 10 c-16 -32 -17 -32 -15 -4 0 14
7 26 14 26 10 0 10 -5 1 -22z m541 -3 c0 -2 -7 -1 -17 2 -12 5 -14 3 -8 -8 5
-8 4 -11 0 -6 -5 4 -10 14 -11 22 -2 12 2 12 17 5 10 -6 19 -13 19 -15z m50
15 c0 -5 -5 -10 -11 -10 -5 0 -7 5 -4 10 3 6 8 10 11 10 2 0 4 -4 4 -10z m165
0 c-3 -5 -12 -10 -18 -10 -7 0 -6 4 3 10 19 12 23 12 15 0z m574 7 c-2 -1 -13
-9 -24 -17 -19 -14 -19 -14 -6 3 7 9 18 17 24 17 6 0 8 -1 6 -3z m-534 -25
c-3 -3 -11 0 -18 7 -9 10 -8 11 6 5 10 -3 15 -9 12 -12z m-709 -1 c-4 -5 -1
-11 6 -13 7 -3 3 -7 -10 -10 -19 -5 -20 -4 -11 13 5 10 12 19 15 19 3 0 3 -4
0 -9z m601 3 c-3 -3 -12 -4 -19 -1 -8 3 -5 6 6 6 11 1 17 -2 13 -5z m-192 -22
c-2 -3 0 -13 6 -23 8 -15 6 -17 -7 -12 -13 5 -15 3 -9 -7 5 -9 4 -11 -4 -6 -8
6 -9 12 -2 20 7 8 7 16 0 23 -6 6 -5 10 6 10 8 0 13 -2 10 -5z m36 -5 c-6 -8
-7 -18 -3 -22 4 -5 1 -5 -6 -1 -10 6 -10 11 -1 22 6 8 14 14 16 14 3 0 0 -6
-6 -13z m154 3 c3 -5 1 -10 -4 -10 -6 0 -11 5 -11 10 0 6 2 10 4 10 3 0 8 -4
11 -10z m120 0 c-3 -5 -12 -10 -18 -10 -7 0 -6 4 3 10 19 12 23 12 15 0z
m-168 -6 c-3 -3 -12 -4 -19 -1 -8 3 -5 6 6 6 11 1 17 -2 13 -5z m459 -13 c-10
-11 -25 -17 -33 -14 -12 5 -12 7 -2 14 7 4 16 6 20 3 4 -2 10 0 14 6 3 5 9 10
12 10 3 0 -2 -9 -11 -19z m-1563 -312 c-5 -5 -6 67 -3 159 l5 167 3 -159 c1
-88 -1 -163 -5 -167z m119 104 c2 -61 0 -109 -4 -106 -5 2 -7 77 -6 166 2 164
6 143 10 -60z m266 192 c-3 -3 -9 2 -12 12 -6 14 -5 15 5 6 7 -7 10 -15 7 -18z
m59 10 c5 -4 2 -5 -6 0 -11 6 -13 4 -7 -10 5 -15 4 -16 -9 -5 -8 7 -15 16 -15
20 0 10 27 7 37 -5z m127 -15 c-6 -6 -10 -3 -10 10 0 13 4 16 10 10 7 -7 7
-13 0 -20z m111 20 c3 -5 1 -10 -4 -10 -6 0 -11 5 -11 10 0 6 2 10 4 10 3 0 8
-4 11 -10z m1022 -5 c0 -24 -30 -46 -47 -34 -13 9 -12 10 2 6 9 -3 22 2 30 10
11 15 10 16 -7 10 -20 -7 -20 -7 -1 8 24 18 23 18 23 0z m-701 -37 c-1 -13 -5
-24 -9 -25 -8 -3 -9 6 -1 30 8 24 13 21 10 -5z m504 -3 c11 -13 10 -14 -4 -9
-9 3 -16 10 -16 15 0 13 6 11 20 -6z m-649 -18 c-10 -9 -11 -8 -5 6 3 10 9 15
12 12 3 -3 0 -11 -7 -18z m-331 -2 c0 -8 -10 -19 -22 -25 -22 -10 -22 -10 -4
4 10 8 15 19 11 25 -3 6 -1 11 4 11 6 0 11 -7 11 -15z m1194 7 c2 -4 -4 -8
-14 -8 -10 0 -16 4 -14 8 3 4 9 8 14 8 5 0 11 -4 14 -8z m-983 -29 c13 -16 12
-17 -3 -4 -10 7 -18 15 -18 17 0 8 8 3 21 -13z m479 2 c0 -2 -9 -3 -19 -2 -11
0 -18 5 -15 9 4 6 34 0 34 -7z m-490 -20 c19 -22 8 -25 -12 -3 -10 10 -14 18
-9 18 5 0 14 -7 21 -15z m161 -8 c-1 -12 -15 -9 -19 4 -3 6 1 10 8 8 6 -3 11
-8 11 -12z m-389 -6 c8 11 9 10 4 -3 -3 -10 -1 -20 4 -23 6 -4 10 -1 10 6 0 7
3 10 6 6 3 -3 3 -11 -1 -17 -8 -13 -46 16 -44 34 0 6 3 5 6 -3 5 -11 7 -11 15
0z m1133 -9 c-2 -3 0 -14 6 -25 8 -14 8 -18 0 -13 -6 4 -15 15 -20 25 -7 13
-6 18 5 18 7 0 12 -2 9 -5z m-880 -12 c-3 -5 -14 -10 -23 -9 -14 0 -13 2 3 9
27 11 27 11 20 0z m135 -5 c0 -2 -9 -3 -19 -2 -11 0 -18 5 -15 9 4 6 34 0 34
-7z m65 -3 c-3 -3 -11 0 -18 7 -9 10 -8 11 6 5 10 -3 15 -9 12 -12z m190 -20
c-3 -3 -11 0 -18 7 -9 10 -8 11 6 5 10 -3 15 -9 12 -12z m567 -10 c-6 -2 -8
-11 -5 -20 3 -9 3 -14 -1 -11 -11 10 -16 50 -5 44 5 -4 9 0 10 7 0 9 2 9 6 -1
3 -8 1 -17 -5 -19z m-185 -3 c2 -20 -23 -34 -32 -18 -4 5 -3 9 2 8 19 -3 25 2
14 14 -8 10 -7 14 2 14 7 0 14 -8 14 -18z m-1050 5 c-3 -3 -12 -4 -19 -1 -8 3
-5 6 6 6 11 1 17 -2 13 -5z m293 2 c0 -2 -8 -10 -17 -17 -16 -13 -17 -12 -4 4
13 16 21 21 21 13z m905 -6 c-3 -5 -12 -10 -18 -10 -7 0 -6 4 3 10 19 12 23
12 15 0z m-392 -15 c-3 -9 -8 -14 -10 -11 -3 3 -2 9 2 15 9 16 15 13 8 -4z
m262 -15 c-3 -5 -12 -10 -18 -10 -7 0 -6 4 3 10 19 12 23 12 15 0z m45 -25
c13 -14 19 -25 14 -25 -8 1 -50 50 -41 50 2 0 14 -11 27 -25z m-1264 -11 c-3
-8 0 -14 6 -14 6 0 9 -2 6 -5 -3 -3 -16 -1 -29 4 -13 5 -18 10 -11 10 6 1 11
4 11 9 -3 16 2 23 12 17 6 -4 8 -13 5 -21z m462 -20 c0 -17 -3 -22 -8 -13 -5
6 -6 18 -3 26 3 7 0 13 -6 13 -6 0 -11 5 -11 11 0 8 4 8 14 0 7 -6 14 -23 14
-37z m999 25 c-9 -6 -15 -14 -12 -20 4 -5 1 -9 -4 -9 -6 0 -11 5 -11 10 0 6
-5 10 -11 10 -5 0 -8 -4 -4 -9 3 -5 1 -12 -4 -15 -5 -4 -8 2 -7 11 2 10 10 18
19 18 8 0 19 4 23 8 4 4 12 7 18 7 6 0 3 -5 -7 -11z m-1354 -34 c-3 -9 -8 -14
-10 -11 -3 3 -2 9 2 15 9 16 15 13 8 -4z m1191 -11 c3 -8 2 -12 -4 -9 -6 3
-10 10 -10 16 0 14 7 11 14 -7z m-1297 0 c-3 -3 -12 -4 -19 -1 -8 3 -5 6 6 6
11 1 17 -2 13 -5z m579 -6 c4 -7 3 -8 -5 -4 -6 4 -20 2 -29 -6 -15 -12 -16
-11 -3 5 16 20 27 22 37 5z m377 -1 c3 -8 -1 -14 -8 -14 -7 0 -11 6 -8 14 3 7
6 13 8 13 2 0 5 -6 8 -13z m501 1 c-3 -4 -9 -8 -15 -8 -5 0 -9 4 -9 8 0 5 7 9
15 9 8 0 12 -4 9 -9z m-1483 -31 c-10 -9 -11 -8 -5 6 3 10 9 15 12 12 3 -3 0
-11 -7 -18z m129 -1 c13 -17 13 -19 0 -14 -8 3 -22 -1 -30 -10 -12 -14 -11
-15 7 -10 12 3 24 1 26 -6 3 -8 -5 -11 -25 -8 -23 4 -29 2 -23 -8 5 -8 4 -11
-3 -7 -11 8 -4 47 8 47 5 0 12 9 15 21 4 11 8 19 9 17 1 -2 8 -12 16 -22z
m280 4 c0 -11 -4 -20 -9 -20 -5 0 -7 9 -4 20 3 11 7 20 9 20 2 0 4 -9 4 -20z
m126 5 c-1 -8 -6 -18 -11 -22 -4 -4 -5 -2 -1 5 5 7 1 12 -11 13 -16 0 -16 1 2
9 11 5 21 9 22 9 1 1 0 -6 -1 -14z m266 -7 c-8 -8 -17 -9 -34 0 -22 11 -22 11
5 6 18 -4 27 -2 27 7 0 7 3 9 7 6 4 -4 1 -13 -5 -19z m363 2 c-3 -5 -12 -10
-18 -10 -7 0 -6 4 3 10 19 12 23 12 15 0z m325 -5 c11 -13 10 -14 -4 -9 -9 3
-16 10 -16 15 0 13 6 11 20 -6z m-753 -1 c-3 -3 -12 -4 -19 -1 -8 3 -5 6 6 6
11 1 17 -2 13 -5z m-1029 -26 c-10 -7 -10 -11 0 -15 17 -7 15 -24 -2 -17 -8 3
-16 16 -18 28 -4 19 -1 22 14 18 16 -4 17 -7 6 -14z m1224 -11 c-7 -8 -9 -17
-5 -21 4 -4 0 -4 -9 -1 -15 6 -15 8 0 24 19 20 31 18 14 -2z m229 8 c7 19 8
19 8 -1 1 -12 -5 -24 -12 -27 -8 -3 -13 4 -14 22 -1 19 1 21 4 6 l6 -20 8 20z
m222 -26 c-26 -10 -35 -1 -22 23 11 21 12 21 26 3 12 -17 11 -20 -4 -26z m177
6 c0 -5 -5 -3 -10 5 -5 8 -10 20 -10 25 0 6 5 3 10 -5 5 -8 10 -19 10 -25z
m-1737 11 c3 -8 0 -17 -7 -19 -10 -4 -12 1 -9 14 6 23 9 24 16 5z m1247 4 c0
-5 -5 -10 -11 -10 -5 0 -7 5 -4 10 3 6 8 10 11 10 2 0 4 -4 4 -10z m-485 -18
c-3 -3 -11 0 -18 7 -9 10 -8 11 6 5 10 -3 15 -9 12 -12z m-948 -258 c-3 -3
-12 -4 -19 -1 -8 3 -5 6 6 6 11 1 17 -2 13 -5z m359 -3 c-4 -5 -1 -11 6 -13 7
-3 5 -7 -6 -11 -10 -4 -15 -3 -11 3 3 6 0 10 -7 10 -9 0 -9 3 2 10 19 12 23
12 16 1z m144 -1 c-8 -5 -19 -10 -25 -10 -5 0 -3 5 5 10 8 5 20 10 25 10 6 0
3 -5 -5 -10z m103 -5 c-3 -9 -8 -14 -10 -11 -3 3 -2 9 2 15 9 16 15 13 8 -4z
m1077 5 c0 -5 -7 -10 -16 -10 -8 0 -12 5 -9 10 3 6 10 10 16 10 5 0 9 -4 9
-10z m-2482 -7 c-10 -2 -26 -2 -35 0 -10 3 -2 5 17 5 19 0 27 -2 18 -5z m1269
-19 c-3 -3 -12 -4 -19 -1 -8 3 -5 6 6 6 11 1 17 -2 13 -5z m558 -14 c3 -6 -1
-7 -9 -4 -18 7 -21 14 -7 14 6 0 13 -4 16 -10z m55 6 c0 -3 -4 -8 -10 -11 -5
-3 -10 -1 -10 4 0 6 5 11 10 11 6 0 10 -2 10 -4z m-473 -28 c-3 -8 -6 -5 -6 6
-1 11 2 17 5 13 3 -3 4 -12 1 -19z m106 15 c-7 -2 -19 -2 -25 0 -7 3 -2 5 12
5 14 0 19 -2 13 -5z m1114 1 c-3 -3 -12 -4 -19 -1 -8 3 -5 6 6 6 11 1 17 -2
13 -5z m-2160 -10 c-3 -3 -12 -4 -19 -1 -8 3 -5 6 6 6 11 1 17 -2 13 -5z
m1298 -4 c3 -5 -1 -10 -10 -10 -9 0 -13 5 -10 10 3 6 8 10 10 10 2 0 7 -4 10
-10z m-50 -10 c-3 -5 -12 -10 -18 -10 -7 0 -6 4 3 10 19 12 23 12 15 0z
m-1315 -3 c0 -2 -10 -12 -22 -23 l-23 -19 19 23 c18 21 26 27 26 19z m591 -10
c-6 -8 -8 -16 -5 -20 3 -3 -3 -8 -14 -11 -11 -4 -22 -19 -25 -35 -6 -29 -34
-50 -34 -26 0 8 5 13 11 12 6 -1 12 8 14 21 2 12 -2 22 -8 22 -6 0 -9 -4 -5
-9 3 -5 1 -12 -4 -15 -11 -7 -9 13 3 33 7 11 10 11 17 0 7 -11 9 -11 9 -1 0 7
6 10 13 7 6 -4 3 1 -8 11 -16 13 -17 16 -3 11 10 -3 20 -2 23 3 4 6 11 10 17
10 7 0 7 -4 -1 -13z m39 9 c0 -2 -8 -10 -17 -17 -16 -13 -17 -12 -4 4 13 16
21 21 21 13z m1987 -38 c-3 -7 -5 -2 -5 12 0 14 2 19 5 13 2 -7 2 -19 0 -25z
m403 21 c12 -8 9 -9 -10 -4 l-25 6 24 -20 c13 -12 19 -21 14 -21 -15 0 -44 36
-36 43 9 9 15 9 33 -4z m37 -11 c-3 -8 -6 -5 -6 6 -1 11 2 17 5 13 3 -3 4 -12
1 -19z m-1373 -7 c3 -4 -4 -17 -17 -27 -22 -19 -22 -19 -4 2 9 11 14 24 10 27
-3 4 -4 7 0 7 3 0 8 -4 11 -9z m-1697 -16 c-4 -8 -2 -17 3 -20 6 -4 10 -11 10
-18 0 -6 -6 -2 -14 8 -12 17 -12 45 1 45 3 0 3 -7 0 -15z m983 -5 c8 -5 12
-11 10 -14 -3 -2 -14 2 -24 10 -22 15 -10 19 14 4z m-1130 -10 c0 -5 -5 -10
-11 -10 -5 0 -7 5 -4 10 3 6 8 10 11 10 2 0 4 -4 4 -10z m2220 6 c0 -2 -7 -7
-16 -10 -8 -3 -12 -2 -9 4 6 10 25 14 25 6z m825 -6 c-3 -5 -12 -10 -18 -10
-7 0 -6 4 3 10 19 12 23 12 15 0z m-1507 -27 c0 -21 -2 -23 -10 -9 -5 9 -6 21
-3 26 10 16 13 12 13 -17z m139 21 c-3 -3 -12 -4 -19 -1 -8 3 -5 6 6 6 11 1
17 -2 13 -5z m1538 -6 c4 4 2 -3 -4 -15 -9 -17 -9 -29 -1 -45 11 -22 11 -22
-5 -3 -8 11 -13 26 -10 33 3 8 0 22 -7 31 -11 14 -11 14 3 4 9 -7 19 -9 24 -5z
m-2389 -18 c0 -12 -4 -16 -9 -11 -5 5 -6 14 -3 20 10 15 12 14 12 -9z m679 0
c3 -5 -1 -10 -10 -10 -9 0 -13 5 -10 10 3 6 8 10 10 10 2 0 7 -4 10 -10z
m-708 -7 c-4 -3 -2 -12 5 -20 6 -7 8 -16 4 -20 -3 -3 -6 0 -6 7 0 9 -7 7 -22
-6 l-23 -19 19 23 c11 12 16 22 12 22 -4 0 -4 5 -1 10 3 6 9 10 12 10 4 0 3
-3 0 -7z m716 -40 c22 -28 32 -57 16 -47 -5 3 -7 9 -4 14 3 4 -2 13 -10 20
-14 12 -19 7 -16 -13 1 -5 -3 -6 -9 -2 -8 5 -7 12 2 23 11 13 10 15 -4 9 -12
-4 -15 -2 -11 9 7 20 12 18 36 -13z m-1490 -33 c-3 -11 -10 -23 -16 -27 -5 -3
-8 -2 -5 3 3 5 8 17 11 27 9 24 16 22 10 -3z m2720 5 c-3 -9 -8 -14 -10 -11
-3 3 -2 9 2 15 9 16 15 13 8 -4z m266 8 c-1 -5 0 -10 1 -13 7 -19 7 -39 -1
-34 -5 3 -7 9 -4 14 3 5 1 11 -5 15 -6 4 -8 11 -5 16 7 11 15 12 14 2z m-2845
-27 c15 -13 26 -26 26 -30 0 -4 -12 4 -27 18 -15 14 -31 22 -36 19 -6 -3 -7
-1 -3 5 10 16 11 16 40 -12z m503 2 c-3 -8 -6 -5 -6 6 -1 11 2 17 5 13 3 -3 4
-12 1 -19z m2386 3 c-4 -3 -11 -10 -14 -14 -3 -5 -9 0 -11 11 -4 15 -1 18 14
14 10 -2 15 -7 11 -11z m-3068 -1 c3 -6 -1 -7 -9 -4 -18 7 -21 14 -7 14 6 0
13 -4 16 -10z m345 -11 c0 -6 -4 -7 -10 -4 -5 3 -10 11 -10 16 0 6 5 7 10 4 6
-3 10 -11 10 -16z m1313 14 c-7 -2 -19 -2 -25 0 -7 3 -2 5 12 5 14 0 19 -2 13
-5z m1096 -42 c0 -14 -1 -14 -6 -1 -3 8 -13 24 -22 35 -16 20 -16 20 7 1 12
-11 22 -26 21 -35z m-2132 17 c-3 -8 -6 -5 -6 6 -1 11 2 17 5 13 3 -3 4 -12 1
-19z m2112 -22 c-2 -2 -13 8 -23 22 l-19 27 24 -22 c12 -12 21 -24 18 -27z
m501 29 c7 -8 9 -15 6 -15 -4 0 -14 7 -22 15 -9 8 -11 15 -6 15 5 0 15 -7 22
-15z m-3259 -9 c-1 -3 -4 -6 -8 -7 -5 0 -14 -5 -20 -11 -19 -15 -16 -2 3 17
15 15 27 15 25 1z m149 -1 c-7 -8 -9 -15 -4 -15 4 0 -3 -11 -15 -24 -14 -15
-19 -26 -12 -31 6 -3 15 -4 19 -1 5 3 9 -1 9 -8 0 -8 -7 -12 -15 -8 -11 4 -13
2 -7 -9 8 -12 6 -12 -8 -1 -9 8 -22 11 -29 7 -7 -4 -4 1 6 9 14 11 15 16 6 16
-9 0 -7 5 6 15 10 8 15 15 10 15 -5 0 1 11 14 25 25 27 40 35 20 10z m477 -12
c0 -9 -4 -10 -14 -2 -7 6 -13 12 -13 14 0 1 6 2 13 2 8 0 14 -6 14 -14z m2104
0 c13 -16 12 -17 -3 -4 -17 13 -22 21 -14 21 2 0 10 -8 17 -17z m-2809 -45
c-5 -5 -9 5 -10 24 0 31 1 31 9 9 6 -14 6 -28 1 -33z m1185 17 c0 -11 -4 -12
-14 -4 -7 6 -13 13 -13 15 0 2 6 4 13 4 8 0 14 -7 14 -15z m51 1 c-7 -8 -15
-12 -17 -11 -5 6 10 25 20 25 5 0 4 -6 -3 -14z m286 2 c-5 -8 -1 -9 12 -4 14
5 16 4 7 -5 -13 -13 -37 -3 -28 12 4 5 8 9 11 9 3 0 2 -5 -2 -12z m371 -8 c10
-11 16 -20 13 -20 -3 0 -13 9 -23 20 -10 11 -16 20 -13 20 3 0 13 -9 23 -20z
m1350 10 c-3 -5 -12 -10 -18 -10 -7 0 -6 4 3 10 19 12 23 12 15 0z m22 -10
c-1 -11 -5 -20 -9 -20 -10 0 -10 4 -2 24 8 22 13 20 11 -4z m-2561 -10 c0 -12
-4 -16 -9 -11 -5 5 -6 14 -3 20 10 15 12 14 12 -9z m2159 0 c3 -6 -1 -7 -9 -4
-18 7 -21 14 -7 14 6 0 13 -4 16 -10z m-1291 -9 c-3 -3 -11 -6 -17 -6 -7 0
-11 -8 -9 -18 2 -9 -1 -17 -6 -17 -11 0 -12 33 0 41 5 3 15 6 23 6 8 0 12 -3
9 -6z m-444 -11 c0 -5 -2 -10 -4 -10 -3 0 -8 5 -11 10 -3 6 -1 10 4 10 6 0 11
-4 11 -10z m140 0 c0 -5 -5 -10 -11 -10 -5 0 -7 5 -4 10 3 6 8 10 11 10 2 0 4
-4 4 -10z m1547 -12 c2 -17 0 -19 -7 -8 -5 8 -6 18 -4 22 8 12 10 10 11 -14z
m-2112 0 c5 4 5 1 1 -6 -6 -10 -11 -10 -22 -1 -8 6 -14 14 -14 16 0 3 6 0 13
-6 8 -6 18 -7 22 -3z m72 -10 c-3 -8 -6 -5 -6 6 -1 11 2 17 5 13 3 -3 4 -12 1
-19z m1161 5 c5 -10 7 -24 4 -32 -3 -9 0 -11 8 -6 9 6 9 2 0 -16 -7 -13 -13
-25 -14 -26 -1 -1 -2 13 -3 33 -1 19 -7 41 -13 49 -8 10 -9 15 -2 15 6 0 15
-8 20 -17z m1266 -3 c-17 -6 -17 -8 5 -19 19 -10 26 -10 40 3 15 14 18 14 18
2 0 -8 -3 -15 -6 -14 -19 2 -22 -4 -10 -19 11 -15 11 -16 0 -6 -7 6 -21 9 -30
6 -9 -4 -13 -3 -9 1 4 5 -5 19 -20 33 -15 13 -21 22 -14 18 6 -3 12 -2 12 4 0
6 8 7 17 4 15 -6 15 -7 -3 -13z m-1429 0 c-3 -5 -11 -10 -16 -10 -6 0 -7 5 -4
10 3 6 11 10 16 10 6 0 7 -4 4 -10z m-1737 -35 c-3 -3 -9 2 -12 12 -6 14 -5
15 5 6 7 -7 10 -15 7 -18z m188 10 c-1 -8 -5 -17 -8 -20 -10 -10 -48 -14 -53
-5 -3 5 3 7 13 5 10 -2 25 1 33 6 12 7 12 9 -1 9 -13 0 -13 1 0 10 19 12 19
13 16 -5z m677 0 c-3 -9 -8 -14 -10 -11 -3 3 -2 9 2 15 9 16 15 13 8 -4z m34
-7 c-3 -8 -6 -5 -6 6 -1 11 2 17 5 13 3 -3 4 -12 1 -19z m2148 1 c0 -8 6 -15
13 -15 22 -2 23 -4 16 -15 -4 -7 -17 0 -37 18 -17 16 -28 21 -24 12 3 -9 0
-16 -8 -16 -10 0 -11 5 -5 18 11 20 45 19 45 -2z m-2648 -46 c-3 -10 -5 -2 -5
17 0 19 2 27 5 18 2 -10 2 -26 0 -35z m-368 14 c0 -9 -2 -8 -6 1 -2 6 -10 9
-15 6 -7 -4 -8 -2 -4 5 9 13 26 5 25 -12z m1903 1 c-14 -14 -16 -32 -2 -23 6
4 7 -1 3 -11 -6 -15 -7 -15 -15 0 -9 16 5 46 20 46 3 0 1 -5 -6 -12z m-1957
-26 c-3 -3 -11 0 -18 7 -9 10 -8 11 6 5 10 -3 15 -9 12 -12z m215 14 c0 -3 -4
-8 -10 -11 -5 -3 -10 -1 -10 4 0 6 5 11 10 11 6 0 10 -2 10 -4z m3040 0 c0 -3
-4 -8 -10 -11 -5 -3 -10 -1 -10 4 0 6 5 11 10 11 6 0 10 -2 10 -4z m-3166 -38
c-2 -3 1 -8 7 -10 14 -5 1 -35 -18 -42 -14 -6 -14 -4 -2 11 12 15 12 16 -6 10
-18 -6 -18 -6 -3 6 11 9 14 18 7 28 -13 21 -11 31 5 17 8 -7 12 -16 10 -20z
m3026 26 c0 -8 -19 -13 -24 -6 -3 5 1 9 9 9 8 0 15 -2 15 -3z m-2850 -32 c3
-2 -6 -1 -20 3 -24 7 -24 7 -7 -11 18 -19 19 -18 33 0 11 16 11 22 1 29 -9 6
-8 7 3 4 8 -2 13 -11 11 -18 -2 -8 -4 -19 -4 -26 0 -7 -4 -10 -9 -7 -4 3 -8 0
-8 -5 0 -6 5 -11 11 -11 5 0 7 -5 3 -12 -6 -9 -9 -9 -12 0 -2 7 -8 10 -12 7
-5 -3 -20 7 -34 22 -19 20 -22 30 -15 40 10 12 39 4 59 -15z m1283 15 c-3 -5
0 -13 7 -17 9 -5 9 -9 1 -14 -6 -4 -11 -2 -11 4 0 6 -4 8 -10 5 -6 -4 -7 1 -3
12 6 16 5 16 -10 4 -10 -7 -17 -9 -17 -3 0 11 16 19 37 19 7 0 9 -5 6 -10z
m1583 -2 c-3 -8 -1 -15 5 -15 6 0 9 -6 6 -14 -3 -7 -1 -18 4 -23 6 -6 2 -9
-10 -8 -24 1 -34 10 -37 30 -1 9 4 11 14 8 10 -4 13 -2 8 5 -4 7 -4 17 -1 22
10 15 18 12 11 -5z m-2201 -4 c3 -5 2 -12 -3 -15 -5 -3 -9 1 -9 9 0 17 3 19
12 6z m988 -6 c-3 -9 -8 -14 -10 -11 -3 3 -2 9 2 15 9 16 15 13 8 -4z m1354
-4 c0 -11 -5 -18 -9 -15 -4 3 -5 11 -1 19 7 21 12 19 10 -4z m-2842 -1 c3 -5
1 -10 -4 -10 -6 0 -11 5 -11 10 0 6 2 10 4 10 3 0 8 -4 11 -10z m2466 -70 c2
-8 -3 -14 -11 -15 -8 0 -14 -6 -13 -13 2 -6 -7 -16 -20 -22 -21 -11 -21 -10
-3 4 11 9 15 16 9 16 -13 0 -11 25 2 37 4 4 5 2 1 -4 -4 -7 -2 -13 3 -13 12 0
13 8 13 55 l-1 30 8 -30 c5 -16 10 -37 12 -45z m436 55 c0 -8 -4 -15 -9 -15
-10 0 -11 14 -1 23 9 10 10 9 10 -8z m-2511 -7 c3 -4 -3 -11 -13 -16 -15 -9
-19 -7 -20 8 -2 17 19 22 33 8z m188 5 c-5 -5 -12 -12 -16 -18 -4 -6 -8 -2 -8
8 0 9 7 17 17 17 9 0 12 -3 7 -7z m109 -16 c-5 -8 -8 -7 -11 1 -2 7 -9 9 -14
6 -7 -4 -8 -2 -4 4 4 6 13 9 21 6 8 -4 12 -11 8 -17z m624 8 c0 -8 -4 -12 -9
-9 -5 3 -6 10 -3 15 9 13 12 11 12 -6z m171 -19 c-18 -14 -26 -29 -24 -42 2
-11 0 -27 -5 -35 -7 -12 -9 -12 -9 1 0 13 -1 13 -10 0 -8 -13 -10 -13 -10 1 0
9 7 20 16 23 8 3 12 10 9 16 -4 6 -12 8 -18 5 -7 -3 -1 2 13 12 13 10 31 26
39 35 8 10 17 15 20 12 4 -3 -6 -16 -21 -28z m907 5 c3 -5 2 -12 -3 -15 -5 -3
-9 1 -9 9 0 17 3 19 12 6z m504 -27 c-14 -13 -16 -13 -16 0 0 8 4 13 9 10 4
-3 8 0 8 7 0 7 3 9 7 5 4 -3 0 -13 -8 -22z m-3474 6 c-3 -5 -12 -10 -18 -10
-7 0 -6 4 3 10 19 12 23 12 15 0z m479 -6 c3 -8 2 -12 -4 -9 -6 3 -10 10 -10
16 0 14 7 11 14 -7z m923 -35 c-6 -10 -15 -15 -20 -12 -4 3 0 11 10 19 17 13
16 14 -7 11 -14 -1 -31 -9 -38 -17 -11 -13 -11 -12 -2 7 5 12 15 25 22 29 7 4
8 3 4 -4 -4 -7 -2 -12 3 -12 6 0 11 8 11 17 0 15 2 15 14 -2 10 -14 11 -23 3
-36z m1188 3 c-2 -9 -4 -20 -4 -23 -1 -3 -14 -5 -30 -5 -25 0 -27 2 -18 17 6
10 15 15 20 12 5 -3 3 -9 -4 -14 -8 -5 -9 -9 -4 -9 15 0 31 14 30 27 0 21 -13
25 -37 13 l-23 -13 20 20 c18 18 22 19 37 6 9 -8 15 -22 13 -31z m390 28 c-10
-11 -21 -18 -23 -15 -3 3 3 12 14 20 27 20 30 18 9 -5z m170 10 c3 -5 2 -10
-4 -10 -5 0 -13 5 -16 10 -3 6 -2 10 4 10 5 0 13 -4 16 -10z m-3028 -42 c0
-10 -6 -14 -15 -11 -11 5 -11 7 0 14 10 7 10 9 1 9 -7 0 -13 7 -13 16 0 13 2
13 13 2 8 -7 14 -21 14 -30z m326 11 c-13 -6 -14 -8 -3 -8 13 -1 13 -3 0 -10
-18 -12 -33 -4 -23 12 4 7 8 15 9 20 1 4 2 10 3 13 0 4 8 0 17 -7 14 -12 14
-14 -3 -20z m580 3 c-6 -15 -5 -15 10 -3 12 9 17 10 17 2 0 -7 4 -9 10 -6 6 4
7 -1 3 -12 -6 -16 -5 -17 13 -3 18 14 18 14 5 -3 -14 -17 -16 -17 -27 -3 -6 9
-16 16 -20 15 -29 -5 -34 3 -25 39 1 2 5 1 11 -3 5 -3 6 -13 3 -23z m-718 0
c-3 -3 -11 0 -18 7 -9 10 -8 11 6 5 10 -3 15 -9 12 -12z m-308 1 c-4 -3 -1
-13 6 -22 11 -14 10 -14 -5 -2 -16 12 -16 31 -1 31 4 0 3 -3 0 -7z m2214 -16
c-10 -9 -11 -8 -5 6 3 10 9 15 12 12 3 -3 0 -11 -7 -18z m939 18 c0 -1 -10
-10 -22 -21 -14 -12 -18 -13 -10 -3 6 9 10 18 7 21 -3 2 2 5 10 5 8 0 15 -1
15 -2z m-1684 -17 c4 -7 4 -10 -1 -6 -4 4 -20 1 -36 -8 -37 -19 -38 -10 -1 10
15 8 28 15 29 16 1 0 5 -6 9 -12z m188 -4 c3 -8 2 -12 -4 -9 -6 3 -10 10 -10
16 0 14 7 11 14 -7z m41 6 c-3 -5 -1 -10 6 -10 7 0 10 -3 6 -6 -9 -9 -28 6
-22 17 4 5 8 9 11 9 3 0 2 -4 -1 -10z m1699 -13 c3 4 14 8 22 9 9 1 13 -1 9
-4 -4 -4 -10 -7 -13 -7 -4 0 -12 -4 -18 -7 -6 -4 -20 2 -30 15 -19 22 -19 22
2 4 11 -9 24 -14 28 -10z m-3326 5 c15 12 15 11 4 -4 -14 -18 -47 -13 -35 5 5
8 8 7 11 -1 3 -10 7 -10 20 0z m252 -2 c0 -5 -2 -10 -4 -10 -3 0 -8 5 -11 10
-3 6 -1 10 4 10 6 0 11 -4 11 -10z m90 -14 c0 -1 -10 -2 -22 0 -13 1 -27 3
-33 3 -5 1 -3 5 4 10 13 8 51 -2 51 -13z m130 9 c0 -11 -29 -11 -33 -1 -4 10
1 12 14 9 10 -3 19 -7 19 -8z m757 1 c18 5 24 3 19 -4 -4 -7 -22 -11 -41 -9
-27 2 -31 5 -22 16 8 9 12 10 15 2 2 -7 14 -8 29 -5z m217 7 c-5 -5 -12 -12
-16 -18 -4 -6 -8 -2 -8 8 0 9 7 17 17 17 9 0 12 -3 7 -7z m40 -1 c3 -5 -1 -9
-9 -9 -8 0 -12 4 -9 9 3 4 7 8 9 8 2 0 6 -4 9 -8z m431 -1 c3 -5 2 -12 -3 -15
-5 -3 -9 1 -9 9 0 17 3 19 12 6z m1475 -6 c0 -8 -4 -15 -10 -15 -5 0 -7 7 -4
15 4 8 8 15 10 15 2 0 4 -7 4 -15z m-2737 -2 c-24 -2 -62 -2 -85 0 -24 2 -5 4
42 4 47 0 66 -2 43 -4z m500 0 c3 -5 -14 -8 -38 -8 -24 0 -42 2 -40 5 6 9 73
11 78 3z m570 0 c-7 -2 -19 -2 -25 0 -7 3 -2 5 12 5 14 0 19 -2 13 -5z m162
-3 c3 -6 -1 -7 -9 -4 -18 7 -21 14 -7 14 6 0 13 -4 16 -10z m833 3 c-32 -2
-84 -2 -115 0 -32 2 -6 3 57 3 63 0 89 -1 58 -3z m-2803 -1471 c-3 -3 -11 0
-18 7 -9 10 -8 11 6 5 10 -3 15 -9 12 -12z m86 3 c5 4 6 -2 2 -11 -5 -13 -2
-16 9 -12 11 5 15 0 14 -15 -1 -12 2 -28 7 -34 6 -9 5 -13 -2 -13 -7 0 -10 -4
-7 -8 3 -5 -1 -9 -9 -9 -8 0 -11 5 -8 11 20 32 -6 88 -37 78 -11 -4 -11 -2 1
11 8 8 16 11 17 6 2 -5 8 -7 13 -4z m86 -2 c0 -9 -4 -10 -14 -2 -7 6 -13 12
-13 14 0 1 6 2 13 2 8 0 14 -6 14 -14z m200 -1 c0 -7 -6 -11 -14 -8 -7 3 -13
1 -13 -3 0 -5 -7 -12 -16 -15 -14 -5 -15 -4 -5 8 15 18 -11 30 -30 13 -10 -10
-11 -9 -2 3 14 19 80 20 80 2z m104 -14 c-10 -11 -11 -10 -6 4 5 13 2 16 -17
12 -21 -4 -21 -4 -3 5 25 11 44 -4 26 -21z m34 11 c-3 -16 0 -19 18 -15 12 3
16 3 9 0 -6 -3 -10 -10 -7 -15 4 -5 -2 -6 -11 -2 -13 5 -15 3 -9 -7 5 -8 4
-11 -2 -7 -8 5 -10 48 -4 65 5 11 9 -2 6 -19z m65 0 c0 -14 -17 -10 -23 5 -4
10 -1 13 9 9 7 -3 14 -9 14 -14z m21 -2 c-10 -9 -11 -8 -5 6 3 10 9 15 12 12
3 -3 0 -11 -7 -18z m125 8 c-1 -8 -6 -18 -11 -22 -4 -5 -5 -2 0 6 6 11 4 13
-11 8 -18 -7 -18 -7 0 8 24 18 25 18 22 0z m94 5 c0 -5 -5 -10 -11 -10 -5 0
-7 5 -4 10 3 6 8 10 11 10 2 0 4 -4 4 -10z m50 -4 c-4 -4 -16 -4 -26 2 -16 9
-14 10 8 9 15 -1 23 -6 18 -11z m76 1 c3 -3 -6 -4 -20 -3 -15 2 -29 6 -32 9
-4 3 6 5 20 3 14 -1 29 -5 32 -9z m228 0 c4 4 4 -1 0 -10 -3 -10 -7 -17 -8
-15 -1 2 -8 12 -16 23 -14 18 -13 19 1 8 9 -7 19 -10 23 -6z m290 1 c-5 -8 -2
-9 12 -4 10 4 15 4 11 0 -4 -4 -1 -14 6 -23 10 -14 10 -14 -4 -3 -9 7 -25 10
-35 6 -16 -5 -16 -4 -4 5 13 9 12 11 -5 12 l-20 0 20 9 c27 12 27 12 19 -2z
m114 -9 c-7 -5 -14 -4 -16 1 -2 6 -9 7 -14 4 -6 -4 -8 -2 -5 4 4 5 16 8 28 5
16 -4 17 -8 7 -14z m265 1 c-3 -12 -8 -19 -11 -16 -5 6 5 36 12 36 2 0 2 -9
-1 -20z m158 7 c-14 -14 -49 -16 -60 -3 -7 9 -1 12 29 11 21 0 36 -3 31 -8z
m179 7 c0 -8 -19 -13 -24 -6 -3 5 1 9 9 9 8 0 15 -2 15 -3z m55 -6 c5 4 5 1 1
-6 -4 -7 0 -15 11 -20 22 -9 27 -29 8 -29 -8 0 -12 3 -10 7 6 9 -30 42 -37 35
-2 -3 -5 2 -5 10 0 10 4 12 12 5 7 -5 16 -6 20 -2z m-716 -12 c7 -8 8 -17 3
-20 -6 -3 -12 3 -15 14 -6 24 -4 25 12 6z m381 10 c0 -2 -7 -7 -16 -10 -8 -3
-12 -2 -9 4 6 10 25 14 25 6z m123 -11 c-3 -9 -8 -14 -10 -11 -3 3 -2 9 2 15
9 16 15 13 8 -4z m87 5 c0 -5 -2 -10 -4 -10 -3 0 -8 5 -11 10 -3 6 -1 10 4 10
6 0 11 -4 11 -10z m320 -4 c-10 -13 -40 -12 -40 1 0 3 7 3 15 0 8 -4 17 -2 20
3 4 6 9 10 12 10 3 0 0 -6 -7 -14z m-2215 -6 c3 -6 -1 -7 -9 -4 -18 7 -21 14
-7 14 6 0 13 -4 16 -10z m474 -34 c-1 -20 -2 -20 -6 -1 -3 11 -10 27 -17 35
-10 13 -9 13 7 1 9 -7 16 -23 16 -35z m102 31 c-1 -12 -15 -9 -19 4 -3 6 1 10
8 8 6 -3 11 -8 11 -12z m84 3 c9 7 17 11 19 9 2 -2 -6 -11 -18 -21 -21 -15
-23 -15 -36 5 -12 20 -12 21 3 8 14 -11 20 -11 32 -1z m164 -6 c-5 -6 -5 -15
-1 -20 4 -5 -4 0 -18 11 -14 11 -26 20 -28 21 -2 1 10 1 27 0 20 0 27 -4 20
-12z m605 8 c2 -4 -4 -8 -14 -8 -10 0 -16 4 -14 8 3 4 9 8 14 8 5 0 11 -4 14
-8z m51 -2 c3 -6 -1 -7 -9 -4 -18 7 -21 14 -7 14 6 0 13 -4 16 -10z m32 -5 c0
-8 -4 -12 -9 -9 -4 3 -8 9 -8 15 0 5 4 9 8 9 5 0 9 -7 9 -15z m747 7 c2 -4 -4
-8 -14 -8 -10 0 -16 4 -14 8 3 4 9 8 14 8 5 0 11 -4 14 -8z m113 -7 c0 -8 -5
-15 -11 -15 -6 0 -5 -4 3 -9 10 -7 19 -4 28 7 12 15 12 13 2 -8 -7 -14 -13
-25 -13 -26 -1 0 6 -9 14 -20 8 -10 10 -16 6 -12 -5 4 -15 3 -23 -3 -7 -6 -13
-8 -13 -4 0 4 -7 2 -15 -5 -10 -9 -15 -9 -15 -1 0 6 4 11 8 11 5 0 8 15 7 33
-1 17 2 40 7 50 11 21 15 22 15 2z m-2409 -18 c17 -18 19 -24 7 -24 -8 0 -13
3 -10 5 3 3 -2 14 -12 24 -24 27 -10 22 15 -5z m1736 15 c3 -5 -1 -9 -9 -9 -8
0 -12 4 -9 9 3 4 7 8 9 8 2 0 6 -4 9 -8z m196 -14 c0 -6 -6 -5 -15 2 -8 7 -15
14 -15 16 0 2 7 1 15 -2 8 -4 15 -11 15 -16z m-1320 -21 c0 -4 4 -6 9 -3 11 7
8 -21 -4 -31 -4 -4 -5 -3 -2 3 8 14 -18 38 -32 29 -7 -4 -8 1 -4 11 5 13 3 15
-7 9 -9 -5 -11 -4 -6 3 8 13 46 -5 46 -21z m176 11 c-18 -25 -48 -34 -39 -12
3 8 8 13 10 10 3 -3 12 1 20 9 21 22 26 18 9 -7z m-701 3 c3 -5 2 -12 -3 -15
-5 -3 -9 1 -9 9 0 17 3 19 12 6z m379 -8 c6 -15 8 -15 16 -3 6 8 10 10 10 4 0
-5 -7 -19 -16 -30 -8 -10 -12 -13 -9 -6 4 7 -1 22 -11 33 -9 10 -12 19 -7 19
6 0 14 -8 17 -17z m276 13 c0 -3 -4 -8 -10 -11 -5 -3 -10 -1 -10 4 0 6 5 11
10 11 6 0 10 -2 10 -4z m320 -11 c0 -2 -6 -5 -13 -8 -8 -3 -14 1 -14 8 0 7 6
11 14 8 7 -3 13 -6 13 -8z m-1212 -9 c-7 -8 -15 -12 -17 -11 -5 6 10 25 20 25
5 0 4 -6 -3 -14z m369 -8 c-3 -8 -6 -5 -6 6 -1 11 2 17 5 13 3 -3 4 -12 1 -19z
m1044 5 c13 -16 12 -17 -3 -4 -17 13 -22 21 -14 21 2 0 10 -8 17 -17z m84 6
c11 -16 1 -19 -13 -3 -7 8 -8 14 -3 14 5 0 13 -5 16 -11z m385 7 c0 -3 -4 -8
-10 -11 -5 -3 -10 -1 -10 4 0 6 5 11 10 11 6 0 10 -2 10 -4z m61 -13 c12 -16
12 -17 -2 -6 -9 7 -20 9 -24 5 -5 -4 -5 -1 -1 6 9 16 11 15 27 -5z m230 -9
c13 -14 17 -23 9 -19 -13 5 -46 45 -37 45 2 0 14 -11 28 -26z m-1650 -1 c13
-16 12 -17 -3 -4 -17 13 -22 21 -14 21 2 0 10 -8 17 -17z m545 -5 c12 -14 13
-18 3 -10 -9 6 -18 10 -21 7 -2 -3 -5 2 -5 10 0 19 0 19 23 -7z m76 8 c7 4 8
2 4 -5 -9 -13 -26 -5 -25 12 0 9 2 8 6 -1 2 -6 10 -9 15 -6z m-1102 0 c0 -2
-6 -9 -14 -15 -11 -9 -16 -9 -22 0 -4 7 -3 9 4 5 6 -3 13 -2 17 4 6 10 15 14
15 6z m1404 -12 c3 -8 2 -12 -4 -9 -6 3 -10 10 -10 16 0 14 7 11 14 -7z m340
7 c-9 -9 -34 -9 -34 -1 0 5 9 8 20 7 10 -1 17 -3 14 -6z m99 -8 c-4 -11 -3
-14 5 -9 7 4 12 2 12 -3 0 -6 -4 -11 -9 -11 -14 0 -23 18 -16 30 10 16 15 12
8 -7z m267 -4 c0 -5 -10 -8 -22 -8 -18 1 -19 2 -5 6 9 2 14 9 11 15 -4 7 -2 8
4 4 7 -4 12 -11 12 -17z m147 15 c-3 -3 -12 -4 -19 -1 -8 3 -5 6 6 6 11 1 17
-2 13 -5z m-2096 -27 c-10 -9 -11 -8 -5 6 3 10 9 15 12 12 3 -3 0 -11 -7 -18z
m1376 17 c-3 -3 -12 -4 -19 -1 -8 3 -5 6 6 6 11 1 17 -2 13 -5z m267 -26 c-9
-14 -23 2 -17 18 4 12 8 13 14 3 4 -7 5 -17 3 -21z m-1849 13 c3 -5 2 -12 -3
-15 -5 -3 -9 1 -9 9 0 17 3 19 12 6z m1750 -20 c-6 -5 -25 10 -25 20 0 5 6 4
14 -3 8 -7 12 -15 11 -17z m585 19 c0 -5 -4 -10 -10 -10 -5 0 -10 5 -10 10 0
6 5 10 10 10 6 0 10 -4 10 -10z m-1683 -30 c-2 -23 -10 -17 -12 10 -1 10 2 17
6 14 4 -2 7 -13 6 -24z m354 13 c13 -16 12 -17 -3 -4 -17 13 -22 21 -14 21 2
0 10 -8 17 -17z m-701 -3 c0 -5 -5 -10 -11 -10 -5 0 -7 5 -4 10 3 6 8 10 11
10 2 0 4 -4 4 -10z m95 -8 c-3 -3 -11 0 -18 7 -9 10 -8 11 6 5 10 -3 15 -9 12
-12z m1730 8 c-3 -5 -12 -10 -18 -10 -7 0 -6 4 3 10 19 12 23 12 15 0z m-2112
-15 c-3 -9 -8 -14 -10 -11 -3 3 -2 9 2 15 9 16 15 13 8 -4z m94 2 c0 -7 -9
-14 -19 -14 -23 -2 -24 14 0 20 9 3 17 5 18 6 0 0 1 -5 1 -12z m78 3 c-3 -5
-1 -10 6 -10 7 0 10 -3 6 -6 -9 -9 -28 6 -22 17 4 5 8 9 11 9 3 0 2 -4 -1 -10z
m292 -12 c-3 -8 -6 -5 -6 6 -1 11 2 17 5 13 3 -3 4 -12 1 -19z m603 19 c0 -2
-8 -11 -18 -20 -15 -14 -19 -15 -19 -2 0 8 4 12 8 9 4 -2 10 0 14 6 6 10 15
14 15 7z m474 -12 c-4 -8 -11 -12 -16 -9 -6 4 -5 10 3 15 19 12 19 11 13 -6z
m636 11 c0 -2 -8 -10 -17 -17 -16 -13 -17 -12 -4 4 13 16 21 21 21 13z m-2203
-28 c-3 -8 -6 -5 -6 6 -1 11 2 17 5 13 3 -3 4 -12 1 -19z m508 -8 c-10 -11
-20 -18 -22 -16 -6 5 30 44 36 39 2 -1 -4 -12 -14 -23z m649 22 c3 -5 -1 -9
-9 -9 -8 0 -12 4 -9 9 3 4 7 8 9 8 2 0 6 -4 9 -8z m286 -2 c-8 -5 -11 -10 -7
-10 5 0 5 -5 2 -10 -4 -6 -11 -8 -16 -4 -12 7 8 34 25 34 6 0 4 -5 -4 -10z
m-887 -15 c-3 -9 -8 -14 -10 -11 -3 3 -2 9 2 15 9 16 15 13 8 -4z m1080 9 c-7
-3 -11 -11 -9 -17 1 -7 1 -9 -1 -4 -3 4 -10 4 -16 0 -7 -4 -6 1 2 10 7 9 19
17 25 16 7 0 7 -2 -1 -5z m110 -7 c3 -7 -3 -13 -14 -14 -15 -1 -16 1 -6 12 15
18 14 18 20 2z m411 4 c4 -5 -3 -7 -14 -4 -23 6 -26 13 -6 13 8 0 17 -4 20 -9z
m92 -6 c-1 -8 -5 -17 -8 -21 -5 -4 -4 16 1 34 3 9 9 -1 7 -13z m-1476 -10 c0
-2 -9 -3 -19 -2 -11 0 -18 5 -15 9 4 6 34 0 34 -7z m547 -5 c-19 -25 -20 -26
-14 -8 3 9 1 19 -6 21 -7 3 -2 4 10 4 18 -1 20 -4 10 -17z m1237 3 c3 -10 5
-21 3 -24 -1 -3 4 -13 10 -21 11 -12 9 -14 -7 -13 -11 1 -23 5 -27 10 -5 4 -3
5 3 2 19 -11 24 19 8 42 -8 11 -11 21 -5 21 5 0 12 -8 15 -17z m34 -19 c-4 -3
-12 5 -18 18 -12 22 -12 22 6 6 10 -10 15 -20 12 -24z m-2474 14 c-3 -4 -11
-5 -19 -1 -21 7 -19 12 4 10 11 0 18 -5 15 -9z m327 -19 l-21 -18 22 -3 c22
-3 22 -4 -3 -9 -21 -5 -26 -2 -24 10 2 9 4 19 4 24 1 4 7 6 14 5 6 -2 11 3 9
10 -1 8 2 11 9 6 9 -5 6 -12 -10 -25z m844 21 c3 -5 1 -10 -4 -10 -6 0 -11 5
-11 10 0 6 2 10 4 10 3 0 8 -4 11 -10z m1062 4 c-3 -3 -12 -4 -19 -1 -8 3 -5
6 6 6 11 1 17 -2 13 -5z m-2201 -19 c-1 -8 -5 -17 -8 -21 -5 -4 -4 16 1 34 3
9 9 -1 7 -13z m872 -4 c12 -11 22 -25 22 -31 0 -7 -9 -2 -21 11 -16 18 -19 20
-15 6 4 -11 2 -16 -5 -12 -6 4 -8 13 -5 21 3 8 0 14 -5 14 -7 0 -9 -11 -7 -25
4 -20 2 -23 -12 -15 -10 5 -20 6 -24 3 -9 -9 -66 -11 -60 -2 2 4 0 10 -6 14
-5 3 -10 1 -10 -5 0 -7 -6 -8 -19 0 -26 13 -34 13 -25 -2 4 -7 3 -8 -5 -4 -6
4 -9 11 -6 16 6 9 55 8 73 -3 6 -5 17 -5 24 -1 7 5 8 3 3 -6 -6 -10 -4 -12 11
-6 10 4 24 8 29 9 6 1 13 10 17 20 9 21 17 21 46 -2z m1005 6 c3 -8 -1 -14 -8
-14 -7 0 -11 6 -8 14 3 7 6 13 8 13 2 0 5 -6 8 -13z m70 -25 c-7 -2 -11 -7 -9
-11 3 -4 -1 -8 -9 -8 -8 0 -13 5 -12 11 1 6 -4 10 -10 9 -15 -3 -17 13 -4 22
6 3 15 -3 21 -12 10 -16 11 -15 6 6 -5 22 -4 23 13 5 14 -15 15 -20 4 -22z
m140 11 c14 -16 15 -23 6 -29 -8 -5 -10 -3 -4 6 6 10 4 12 -8 7 -12 -4 -14 -2
-10 10 4 11 2 14 -5 9 -8 -5 -10 -2 -6 9 4 9 7 15 8 13 1 -2 9 -13 19 -25z
m31 12 c-4 -10 -1 -14 7 -12 8 2 10 2 6 -1 -4 -2 -2 -11 4 -20 7 -10 2 -7 -10
4 -13 12 -20 27 -17 33 10 16 16 13 10 -4z m236 -2 c0 -7 6 -13 13 -14 9 0 9
-2 -1 -6 -6 -2 -10 -9 -7 -14 4 -5 -1 -6 -10 -3 -17 7 -37 38 -30 46 10 10 35
4 35 -9z m-2147 -13 c-3 -12 -8 -19 -11 -16 -5 6 5 36 12 36 2 0 2 -9 -1 -20z
m32 11 c3 -5 2 -12 -3 -15 -5 -3 -9 1 -9 9 0 17 3 19 12 6z m359 1 c2 -4 -5
-9 -17 -9 -17 -2 -19 0 -7 7 18 12 18 12 24 2z m759 -5 c8 4 7 1 -1 -9 -7 -9
-24 -18 -38 -21 -29 -5 -19 9 11 16 16 4 14 5 -6 6 -15 0 -32 -6 -39 -14 -13
-16 -30 -11 -30 8 0 7 4 6 10 -3 6 -10 10 -11 10 -3 0 14 63 34 68 21 2 -4 9
-5 15 -1z m295 -10 c-1 -17 -8 -23 -24 -23 -13 0 -20 4 -18 8 7 11 -10 10 -24
-2 -7 -5 -6 -2 2 7 13 14 18 14 31 3 14 -11 17 -10 22 8 7 29 13 28 11 -1z
m589 9 c-10 -8 -18 -18 -17 -22 0 -4 -6 -9 -15 -10 -8 -1 -13 2 -9 7 8 13 -10
11 -25 -3 -9 -9 -12 -9 -7 -1 3 6 0 13 -6 16 -7 3 -4 5 7 5 25 0 66 10 73 17
3 3 8 5 11 5 3 0 -2 -7 -12 -14z m-1843 -7 c-3 -6 -1 -15 6 -19 7 -5 2 -7 -15
-7 -19 0 -23 2 -14 8 8 5 10 9 4 9 -5 0 -3 5 5 10 20 13 23 12 14 -1z m594 -1
c-2 -7 2 -12 9 -13 26 -1 19 -10 -9 -12 -21 0 -26 2 -17 8 8 5 10 9 6 9 -5 0
-5 5 -2 10 8 14 16 13 13 -2z m843 -5 c12 -16 12 -17 -2 -5 -9 7 -25 10 -35 6
-16 -5 -16 -4 -4 5 20 15 25 14 41 -6z m451 -1 c4 -12 -1 -18 -13 -18 -14 0
-15 4 -8 18 5 10 11 18 13 18 2 0 6 -8 8 -18z m-2442 -7 c0 -8 -4 -15 -10 -15
-5 0 -7 7 -4 15 4 8 8 15 10 15 2 0 4 -7 4 -15z m650 11 c0 -2 -8 -10 -17 -17
-16 -13 -17 -12 -4 4 13 16 21 21 21 13z m150 -6 c0 -5 -2 -10 -4 -10 -3 0 -8
5 -11 10 -3 6 -1 10 4 10 6 0 11 -4 11 -10z m407 -12 c-3 -8 -6 -5 -6 6 -1 11
2 17 5 13 3 -3 4 -12 1 -19z m48 11 c4 -6 14 -8 24 -4 12 5 13 3 4 -6 -9 -9
-17 -8 -34 5 -13 9 -18 16 -12 16 7 0 15 -5 18 -11z m297 4 c-6 -2 -9 -10 -6
-15 4 -7 2 -8 -5 -4 -13 9 -5 26 12 25 9 0 8 -2 -1 -6z m98 -16 c0 -2 -8 -3
-18 -3 -10 0 -19 6 -19 13 0 8 6 9 19 2 10 -5 18 -11 18 -12z m29 10 c8 -10 7
-14 -4 -14 -8 0 -12 4 -9 8 2 4 -2 10 -8 12 -8 4 -9 6 -2 6 6 1 17 -5 23 -12z
m31 3 c0 -5 -2 -10 -4 -10 -3 0 -8 5 -11 10 -3 6 -1 10 4 10 6 0 11 -4 11 -10z
m471 -7 c13 -16 12 -17 -3 -4 -17 13 -22 21 -14 21 2 0 10 -8 17 -17z m-2141
-3 c0 -5 -7 -7 -15 -4 -8 4 -15 8 -15 10 0 2 7 4 15 4 8 0 15 -4 15 -10z m680
4 c0 -8 -19 -13 -24 -6 -3 5 1 9 9 9 8 0 15 -2 15 -3z m58 -9 c3 -3 -4 -4 -16
-2 -12 2 -24 6 -28 10 -4 3 4 4 16 2 12 -2 25 -7 28 -10z"/>
<path d="M3376 3153 c-6 -14 -5 -15 5 -6 7 7 10 15 7 18 -3 3 -9 -2 -12 -12z"/>
<path d="M1196 2391 c-3 -4 7 -19 22 -32 l27 -24 -23 26 c-12 14 -19 29 -15
32 3 4 4 7 0 7 -3 0 -8 -4 -11 -9z"/>
<path d="M4101 2361 c-8 -5 -9 -11 -3 -15 5 -3 12 1 16 9 6 17 6 18 -13 6z"/>
<path d="M3397 733 c-2 -5 -1 -17 4 -28 8 -21 8 -21 14 7 3 19 -10 34 -18 21z"/>
<path d="M3316 605 c4 -8 11 -15 16 -15 6 0 5 6 -2 15 -7 8 -14 15 -16 15 -2
0 -1 -7 2 -15z"/>
</g>
</svg>
